# Blender 4.2.3 LTS
# www.blender.org
mtllib untitled.mtl
o Chair0
v 2.199020 -0.790354 5.508400
v 1.801542 -0.790354 5.053207
v 1.801542 -1.681460 5.053207
v 2.199020 -1.681460 5.508400
v 2.280834 -1.681460 4.634685
v 2.280834 -0.790355 4.634685
v 2.678313 -0.790354 5.089878
v 2.678313 -1.681460 5.089878
vn -0.7532 -0.0000 0.6577
vn 0.7532 -0.0000 -0.6577
vn -0.0000 1.0000 -0.0000
vn -0.0000 -1.0000 -0.0000
vn 0.6577 -0.0000 0.7532
vn -0.6577 -0.0000 -0.7532
s 0
f 1//1 2//1 3//1 4//1
f 5//2 6//2 7//2 8//2
f 1//3 7//3 6//3 2//3
f 5//4 8//4 4//4 3//4
f 1//5 4//5 8//5 7//5
f 5//6 3//6 2//6 6//6
o Chair1
v -1.850808 -0.728785 0.914664
v -2.226036 -0.728786 0.484527
v -2.226036 -1.681460 0.484527
v -1.850808 -1.681460 0.914664
v -1.755057 -1.681460 0.073670
v -1.755057 -0.728786 0.073670
v -1.379828 -0.728786 0.503807
v -1.379828 -1.681460 0.503807
vn -0.7536 -0.0000 0.6574
vn 0.7536 -0.0000 -0.6574
vn -0.0000 1.0000 -0.0000
vn -0.0000 -1.0000 -0.0000
vn 0.6574 -0.0000 0.7536
vn -0.6574 -0.0000 -0.7536
s 0
f 9//7 10//7 11//7 12//7
f 13//8 14//8 15//8 16//8
f 9//9 15//9 14//9 10//9
f 13//10 16//10 12//10 11//10
f 9//11 12//11 16//11 15//11
f 13//12 11//12 10//12 14//12
o Chair2
v 1.713917 -0.790354 5.948493
v 2.111395 -0.790354 6.403686
v 2.111395 -1.681459 6.403686
v 1.713917 -1.681460 5.948493
v 1.632103 -1.681459 6.822208
v 1.632103 -0.790354 6.822208
v 1.234625 -0.790354 6.367016
v 1.234625 -1.681459 6.367016
vn 0.7532 -0.0000 -0.6577
vn -0.7532 -0.0000 0.6577
vn -0.0000 1.0000 -0.0000
vn -0.0000 -1.0000 -0.0000
vn -0.6577 -0.0000 -0.7532
vn 0.6577 -0.0000 0.7532
s 0
f 17//13 18//13 19//13 20//13
f 21//14 22//14 23//14 24//14
f 17//15 23//15 22//15 18//15
f 21//16 24//16 20//16 19//16
f 17//17 20//17 24//17 23//17
f 21//18 19//18 18//18 22//18
o Chair3
v 5.758478 -0.873693 4.589949
v 6.103406 -0.873693 4.984961
v 6.103406 -1.681460 4.984961
v 5.758478 -1.681460 4.589949
v 5.698188 -1.681460 5.338802
v 5.698188 -0.873693 5.338802
v 5.353260 -0.873693 4.943790
v 5.353260 -1.681460 4.943790
vn 0.7532 -0.0000 -0.6577
vn -0.7532 -0.0000 0.6577
vn -0.0000 1.0000 -0.0000
vn -0.0000 -1.0000 -0.0000
vn -0.6577 -0.0000 -0.7532
vn 0.6577 -0.0000 0.7532
s 0
f 25//19 26//19 27//19 28//19
f 29//20 30//20 31//20 32//20
f 25//21 31//21 30//21 26//21
f 29//22 32//22 28//22 27//22
f 25//23 28//23 32//23 31//23
f 29//24 27//24 26//24 30//24
o Chair4
v 3.821625 -0.790354 7.366615
v 3.424149 -0.790354 6.911421
v 3.424149 -1.681459 6.911421
v 3.821625 -1.681459 7.366615
v 3.903442 -1.681460 6.492901
v 3.903442 -0.790354 6.492901
v 4.300919 -0.790354 6.948095
v 4.300919 -1.681459 6.948095
vn -0.7532 -0.0000 0.6577
vn 0.7532 -0.0000 -0.6577
vn -0.0000 1.0000 -0.0000
vn -0.0000 -1.0000 -0.0000
vn 0.6577 -0.0000 0.7532
vn -0.6577 -0.0000 -0.7532
s 0
f 33//25 34//25 35//25 36//25
f 37//26 38//26 39//26 40//26
f 33//27 39//27 38//27 34//27
f 37//28 40//28 36//28 35//28
f 33//29 36//29 40//29 39//29
f 37//30 35//30 34//30 38//30
o Chair5
v -0.734485 -0.728785 2.192719
v -1.110071 -0.728785 1.762896
v -1.110071 -1.681460 1.762896
v -0.734485 -1.681460 2.192719
v -0.639435 -1.681460 1.351647
v -0.639435 -0.728785 1.351647
v -0.263849 -0.728785 1.781470
v -0.263849 -1.681460 1.781470
vn -0.7530 -0.0000 0.6580
vn 0.7530 -0.0000 -0.6580
vn -0.0000 1.0000 -0.0000
vn -0.0000 -1.0000 -0.0000
vn 0.6580 -0.0000 0.7530
vn -0.6580 -0.0000 -0.7530
s 0
f 41//31 42//31 43//31 44//31
f 45//32 46//32 47//32 48//32
f 41//33 47//33 46//33 42//33
f 45//34 48//34 44//34 43//34
f 41//35 44//35 48//35 47//35
f 45//36 43//36 42//36 46//36
o Chair6
v 1.387719 -0.790354 4.579293
v 0.990240 -0.790355 4.124101
v 0.990240 -1.681460 4.124101
v 1.387719 -1.681460 4.579293
v 1.469531 -1.681460 3.705577
v 1.469531 -0.790355 3.705577
v 1.867011 -0.790355 4.160769
v 1.867011 -1.681460 4.160769
vn -0.7532 -0.0000 0.6577
vn 0.7532 -0.0000 -0.6577
vn -0.0000 1.0000 -0.0000
vn -0.0000 -1.0000 -0.0000
vn 0.6577 -0.0000 0.7532
vn -0.6577 -0.0000 -0.7532
s 0
f 49//37 50//37 51//37 52//37
f 53//38 54//38 55//38 56//38
f 49//39 55//39 54//39 50//39
f 53//40 56//40 52//40 51//40
f 49//41 52//41 56//41 55//41
f 53//42 51//42 50//42 54//42
o Chair7
v 3.010324 -0.790355 6.437509
v 2.612845 -0.790355 5.982316
v 2.612845 -1.681460 5.982316
v 3.010324 -1.681459 6.437509
v 3.092137 -1.681460 5.563793
v 3.092137 -0.790355 5.563793
v 3.489616 -0.790355 6.018985
v 3.489616 -1.681460 6.018985
vn -0.7532 -0.0000 0.6577
vn 0.7532 -0.0000 -0.6577
vn -0.0000 1.0000 -0.0000
vn -0.0000 -1.0000 -0.0000
vn 0.6577 -0.0000 0.7532
vn -0.6577 -0.0000 -0.7532
s 0
f 57//43 58//43 59//43 60//43
f 61//44 62//44 63//44 64//44
f 57//45 63//45 62//45 58//45
f 61//46 64//46 60//46 59//46
f 57//47 60//47 64//47 63//47
f 61//48 59//48 58//48 62//48
o Chair8
v 3.923916 -0.821133 2.247863
v 4.310275 -0.821133 2.690320
v 4.310275 -1.681460 2.690320
v 3.923916 -1.681460 2.247863
v 3.820556 -1.681460 3.117949
v 3.820556 -0.821133 3.117949
v 3.434197 -0.821133 2.675491
v 3.434197 -1.681460 2.675491
vn 0.7532 -0.0000 -0.6577
vn -0.7532 -0.0000 0.6577
vn -0.0000 1.0000 -0.0000
vn -0.0000 -1.0000 -0.0000
vn -0.6577 -0.0000 -0.7532
vn 0.6577 -0.0000 0.7532
s 0
f 65//49 66//49 67//49 68//49
f 69//50 70//50 71//50 72//50
f 65//51 71//51 70//51 66//51
f 69//52 72//52 68//52 67//52
f 65//53 68//53 72//53 71//53
f 69//54 67//54 66//54 70//54
o Door0
v -1.307734 0.627455 4.820852
v -0.738159 0.627455 5.473132
v -0.738159 -1.681460 5.473133
v -1.307734 -1.681460 4.820852
v -0.738536 -1.681460 5.473462
v -0.738536 0.627455 5.473461
v -1.308111 0.627455 4.821181
v -1.308111 -1.681460 4.821181
vn 0.7532 -0.0000 -0.6577
vn -0.7532 -0.0000 0.6577
vn -0.0000 1.0000 -0.0000
vn -0.0000 -1.0000 -0.0000
vn -0.6577 -0.0000 -0.7532
vn 0.6577 -0.0000 0.7532
s 0
f 73//55 74//55 75//55 76//55
f 77//56 78//56 79//56 80//56
f 73//57 79//57 78//57 74//57
f 77//58 80//58 76//58 75//58
f 73//59 76//59 80//59 79//59
f 77//60 75//60 74//60 78//60
o Door1
v -0.270732 0.842940 -2.195568
v -1.849778 0.842940 -0.816734
v -1.849778 -1.681460 -0.816733
v -0.270732 -1.681460 -2.195568
v -1.850107 -1.681460 -0.817110
v -1.850107 0.842940 -0.817110
v -0.271061 0.842940 -2.195945
v -0.271061 -1.681460 -2.195945
vn 0.6577 -0.0000 0.7532
vn -0.6577 -0.0000 -0.7532
vn -0.0000 1.0000 -0.0000
vn -0.0000 -1.0000 -0.0000
vn 0.7532 -0.0000 -0.6577
vn -0.7532 -0.0000 0.6577
s 0
f 81//61 82//61 83//61 84//61
f 85//62 86//62 87//62 88//62
f 81//63 87//63 86//63 82//63
f 85//64 88//64 84//64 83//64
f 81//65 84//65 88//65 87//65
f 85//66 83//66 82//66 86//66
o Floor0
v -4.335668 -1.681461 1.353631
v 2.379331 -1.681459 9.043674
v 1.276387 -1.681461 -1.096035
v 6.761147 -1.681459 5.217442
v 6.628170 -1.681459 5.065155
v 0.894526 -1.681461 -1.533345
v 0.228286 -1.681461 -2.631646
v 6.788114 -1.681459 4.925491
v 1.420325 -1.681461 -1.221723
v 1.060656 -1.681461 -1.678412
v -4.335668 -1.681561 1.353631
v 2.379331 -1.681559 9.043674
v 1.276387 -1.681561 -1.096035
v 6.761147 -1.681559 5.217442
v 6.628170 -1.681559 5.065155
v 0.894526 -1.681561 -1.533345
v 0.228286 -1.681561 -2.631646
v 6.788114 -1.681559 4.925491
v 1.420325 -1.681561 -1.221723
v 1.060656 -1.681561 -1.678412
v 6.628170 -1.681459 5.065155
v 6.761147 -1.681459 5.217442
v 6.761147 -1.681559 5.217442
v 6.628170 -1.681559 5.065155
v 6.788114 -1.681459 4.925491
v 6.628170 -1.681459 5.065155
v 6.628170 -1.681559 5.065155
v 6.788114 -1.681559 4.925491
v 1.420325 -1.681461 -1.221723
v 6.788114 -1.681459 4.925491
v 6.788114 -1.681559 4.925491
v 1.420325 -1.681561 -1.221723
v 1.276387 -1.681461 -1.096035
v 1.420325 -1.681461 -1.221723
v 1.420325 -1.681561 -1.221723
v 1.276387 -1.681561 -1.096035
v 0.894526 -1.681461 -1.533345
v 1.276387 -1.681461 -1.096035
v 1.276387 -1.681561 -1.096035
v 0.894526 -1.681561 -1.533345
v 1.060656 -1.681461 -1.678412
v 0.894526 -1.681461 -1.533345
v 0.894526 -1.681561 -1.533345
v 1.060656 -1.681561 -1.678412
v 0.228286 -1.681461 -2.631646
v 1.060656 -1.681461 -1.678412
v 1.060656 -1.681561 -1.678412
v 0.228286 -1.681561 -2.631646
v -4.335668 -1.681461 1.353631
v 0.228286 -1.681461 -2.631646
v 0.228286 -1.681561 -2.631646
v -4.335668 -1.681561 1.353631
v 2.379331 -1.681459 9.043674
v -4.335668 -1.681461 1.353631
v -4.335668 -1.681561 1.353631
v 2.379331 -1.681559 9.043674
v 6.761147 -1.681459 5.217442
v 2.379331 -1.681459 9.043674
v 2.379331 -1.681559 9.043674
v 6.761147 -1.681559 5.217442
vn -0.0000 1.0000 -0.0000
vn -0.0000 -1.0000 -0.0000
vn 0.7532 -0.0000 -0.6577
vn 0.6577 -0.0000 0.7532
vn -0.6577 -0.0000 -0.7532
vn -0.7532 -0.0000 0.6577
s 1
usemtl Floor0_color
f 89//67 90//67 91//67
f 90//67 92//67 93//67
f 90//67 93//67 91//67
f 89//67 91//67 94//67
f 89//67 94//67 95//67
f 93//67 96//67 91//67
f 91//67 96//67 97//67
f 94//67 98//67 95//67
f 105//68 108//68 104//68
f 107//68 106//68 101//68
f 101//68 106//68 103//68
f 105//68 104//68 99//68
f 104//68 101//68 99//68
f 101//68 103//68 100//68
f 103//68 102//68 100//68
f 101//68 100//68 99//68
f 109//69 110//69 111//69
f 111//69 112//69 109//69
f 113//70 114//70 115//70
f 115//70 116//70 113//70
f 117//69 118//69 119//69
f 119//69 120//69 117//69
f 121//71 122//71 123//71
f 123//71 124//71 121//71
f 125//69 126//69 127//69
f 127//69 128//69 125//69
f 129//70 130//70 131//70
f 131//70 132//70 129//70
f 133//69 134//69 135//69
f 135//69 136//69 133//69
f 137//71 138//71 139//71
f 139//71 140//71 137//71
f 141//72 142//72 143//72
f 143//72 144//72 141//72
f 145//70 146//70 147//70
f 147//70 148//70 145//70
o Storage0
v 0.535767 0.190359 -1.541608
v -0.137303 0.190359 -2.312412
v -0.137303 -1.681460 -2.312412
v 0.535767 -1.681460 -1.541608
v 0.228286 -1.681460 -2.631647
v 0.228286 0.190359 -2.631647
v 0.901357 0.190359 -1.860843
v 0.901357 -1.681460 -1.860843
vn -0.7532 -0.0000 0.6577
vn 0.7532 -0.0000 -0.6577
vn -0.0000 1.0000 -0.0000
vn -0.0000 -1.0000 -0.0000
vn 0.6577 -0.0000 0.7532
vn -0.6577 -0.0000 -0.7532
s 0
f 149//73 150//73 151//73 152//73
f 153//74 154//74 155//74 156//74
f 149//75 155//75 154//75 150//75
f 153//76 156//76 152//76 151//76
f 149//77 152//77 156//77 155//77
f 153//78 151//78 150//78 154//78
o Table0
v 1.094867 -0.884802 3.615102
v 4.340080 -0.884802 7.331533
v 4.340080 -1.681460 7.331533
v 1.094867 -1.681460 3.615102
v 3.223722 -1.681460 8.306345
v 3.223722 -0.884802 8.306345
v -0.021491 -0.884802 4.589913
v -0.021491 -1.681460 4.589913
vn 0.7532 -0.0000 -0.6577
vn -0.7532 -0.0000 0.6577
vn -0.0000 1.0000 -0.0000
vn -0.0000 -1.0000 -0.0000
vn -0.6577 -0.0000 -0.7532
vn 0.6577 -0.0000 0.7532
s 0
f 157//79 158//79 159//79 160//79
f 161//80 162//80 163//80 164//80
f 157//81 163//81 162//81 158//81
f 161//82 164//82 160//82 159//82
f 157//83 160//83 164//83 163//83
f 161//84 159//84 158//84 162//84
o Table1
v 4.577612 -0.910557 3.638973
v 3.019944 -0.910558 1.855125
v 3.019944 -1.681460 1.855125
v 4.577612 -1.681460 3.638973
v 3.636744 -1.681460 1.316530
v 3.636744 -0.910558 1.316530
v 5.194413 -0.910558 3.100379
v 5.194413 -1.681460 3.100379
vn -0.7532 -0.0000 0.6577
vn 0.7532 -0.0000 -0.6577
vn -0.0000 1.0000 -0.0000
vn -0.0000 -1.0000 -0.0000
vn 0.6577 -0.0000 0.7532
vn -0.6577 -0.0000 -0.7532
s 0
f 165//85 166//85 167//85 168//85
f 169//86 170//86 171//86 172//86
f 165//87 171//87 170//87 166//87
f 169//88 172//88 168//88 167//88
f 165//89 168//89 172//89 171//89
f 169//90 167//90 166//90 170//90
o Table2
v -1.117716 -0.884324 3.274567
v -3.349660 -0.884325 0.718536
v -3.349660 -1.681460 0.718536
v -1.117716 -1.681460 3.274567
v -2.290301 -1.681460 -0.206504
v -2.290301 -0.884325 -0.206504
v -0.058357 -0.884325 2.349528
v -0.058357 -1.681460 2.349528
vn -0.7532 -0.0000 0.6577
vn 0.7532 -0.0000 -0.6577
vn -0.0000 1.0000 -0.0000
vn -0.0000 -1.0000 -0.0000
vn 0.6577 -0.0000 0.7532
vn -0.6577 -0.0000 -0.7532
s 0
f 173//91 174//91 175//91 176//91
f 177//92 178//92 179//92 180//92
f 173//93 179//93 178//93 174//93
f 177//94 180//94 176//94 175//94
f 173//95 176//95 180//95 179//95
f 177//96 175//96 174//96 178//96
o Table3
v 6.058308 -0.911251 5.464949
v 5.276793 -0.911251 4.569954
v 5.276793 -1.681460 4.569954
v 6.058308 -1.681460 5.464949
v 5.888158 -1.681460 4.036107
v 5.888158 -0.911251 4.036107
v 6.669673 -0.911251 4.931101
v 6.669673 -1.681460 4.931101
vn -0.7532 -0.0000 0.6577
vn 0.7532 -0.0000 -0.6577
vn -0.0000 1.0000 -0.0000
vn -0.0000 -1.0000 -0.0000
vn 0.6577 -0.0000 0.7532
vn -0.6577 -0.0000 -0.7532
s 0
f 181//97 182//97 183//97 184//97
f 185//98 186//98 187//98 188//98
f 181//99 187//99 186//99 182//99
f 185//100 188//100 184//100 183//100
f 181//101 184//101 188//101 187//101
f 185//102 183//102 182//102 186//102
o Wall0
v -4.335630 1.645540 1.353597
v 2.379368 1.645540 9.043642
v 2.379368 -1.681459 9.043642
v -4.335630 -1.681460 1.353597
v 2.379293 -1.681459 9.043708
v 2.379293 1.645540 9.043707
v -4.335705 1.645540 1.353662
v -4.335705 -1.681460 1.353663
vn 0.7532 -0.0000 -0.6577
vn -0.7532 -0.0000 0.6577
vn -0.0000 1.0000 -0.0000
vn -0.0000 -1.0000 -0.0000
vn -0.6577 -0.0000 -0.7532
vn 0.6577 -0.0000 0.7532
s 0
f 189//103 190//103 191//103 192//103
f 193//104 194//104 195//104 196//104
f 189//105 195//105 194//105 190//105
f 193//106 196//106 192//106 191//106
f 189//107 192//107 196//107 195//107
f 193//108 191//108 190//108 194//108
o Wall1
v 6.788076 1.645540 4.925525
v 1.420287 1.645540 -1.221690
v 1.420287 -1.681460 -1.221690
v 6.788076 -1.681460 4.925525
v 1.420363 -1.681460 -1.221756
v 1.420363 1.645540 -1.221756
v 6.788152 1.645540 4.925459
v 6.788152 -1.681460 4.925459
vn -0.7532 -0.0000 0.6577
vn 0.7532 -0.0000 -0.6577
vn -0.0000 1.0000 -0.0000
vn -0.0000 -1.0000 -0.0000
vn 0.6577 -0.0000 0.7532
vn -0.6577 -0.0000 -0.7532
s 0
f 197//109 198//109 199//109 200//109
f 201//110 202//110 203//110 204//110
f 197//111 203//111 202//111 198//111
f 201//112 204//112 200//112 199//112
f 197//113 200//113 204//113 203//113
f 201//114 199//114 198//114 202//114
o Wall2
v 0.228319 1.645540 -2.631609
v -4.335635 1.645540 1.353668
v -4.335635 -1.681460 1.353668
v 0.228319 -1.681460 -2.631609
v -4.335701 -1.681460 1.353593
v -4.335701 1.645540 1.353593
v 0.228253 1.645540 -2.631684
v 0.228253 -1.681460 -2.631684
vn 0.6577 -0.0000 0.7532
vn -0.6577 -0.0000 -0.7532
vn -0.0000 1.0000 -0.0000
vn -0.0000 -1.0000 -0.0000
vn 0.7532 -0.0000 -0.6577
vn -0.7532 -0.0000 0.6577
s 0
f 205//115 206//115 207//115 208//115
f 209//116 210//116 211//116 212//116
f 205//117 211//117 210//117 206//117
f 209//118 212//118 208//118 207//118
f 205//119 208//119 212//119 211//119
f 209//120 207//120 206//120 210//120
o Wall3
v 2.379297 1.645540 9.043636
v 6.761115 1.645540 5.217404
v 6.761115 -1.681460 5.217404
v 2.379297 -1.681459 9.043636
v 6.761181 -1.681460 5.217480
v 6.761181 1.645540 5.217479
v 2.379363 1.645540 9.043712
v 2.379363 -1.681459 9.043713
vn -0.6577 -0.0000 -0.7532
vn 0.6577 -0.0000 0.7532
vn -0.0000 1.0000 -0.0000
vn -0.0000 -1.0000 -0.0000
vn -0.7532 -0.0000 0.6577
vn 0.7532 -0.0000 -0.6577
s 0
f 213//121 214//121 215//121 216//121
f 217//122 218//122 219//122 220//122
f 213//123 219//123 218//123 214//123
f 217//124 220//124 216//124 215//124
f 213//125 216//125 220//125 219//125
f 217//126 215//126 214//126 218//126
o Wall4
v 1.060619 1.645540 -1.678379
v 0.228248 1.645540 -2.631613
v 0.228248 -1.681460 -2.631613
v 1.060619 -1.681460 -1.678379
v 0.228324 -1.681460 -2.631679
v 0.228324 1.645540 -2.631679
v 1.060694 1.645540 -1.678445
v 1.060694 -1.681460 -1.678445
vn -0.7532 -0.0000 0.6577
vn 0.7532 -0.0000 -0.6577
vn -0.0000 1.0000 -0.0000
vn -0.0000 -1.0000 -0.0000
vn 0.6577 -0.0000 0.7532
vn -0.6577 -0.0000 -0.7532
s 0
f 221//127 222//127 223//127 224//127
f 225//128 226//128 227//128 228//128
f 221//129 227//129 226//129 222//129
f 225//130 228//130 224//130 223//130
f 221//131 224//131 228//131 227//131
f 225//132 223//132 222//132 226//132
o Wall5
v 1.276350 1.645540 -1.096003
v 0.894488 1.645540 -1.533312
v 0.894488 -1.681460 -1.533312
v 1.276350 -1.681460 -1.096002
v 0.894564 -1.681460 -1.533378
v 0.894564 1.645540 -1.533378
v 1.276425 1.645540 -1.096068
v 1.276425 -1.681460 -1.096068
vn -0.7532 -0.0000 0.6577
vn 0.7532 -0.0000 -0.6577
vn -0.0000 1.0000 -0.0000
vn -0.0000 -1.0000 -0.0000
vn 0.6577 -0.0000 0.7532
vn -0.6577 -0.0000 -0.7532
s 0
f 229//133 230//133 231//133 232//133
f 233//134 234//134 235//134 236//134
f 229//135 235//135 234//135 230//135
f 233//136 236//136 232//136 231//136
f 229//137 232//137 236//137 235//137
f 233//138 231//138 230//138 234//138
o Wall6
v 1.420358 1.645540 -1.221685
v 1.276421 1.645540 -1.095998
v 1.276421 -1.681460 -1.095997
v 1.420358 -1.681460 -1.221685
v 1.276355 -1.681460 -1.096073
v 1.276355 1.645540 -1.096073
v 1.420292 1.645540 -1.221760
v 1.420292 -1.681460 -1.221760
vn 0.6577 -0.0000 0.7532
vn -0.6577 -0.0000 -0.7532
vn -0.0000 1.0000 -0.0000
vn -0.0000 -1.0000 -0.0000
vn 0.7532 -0.0000 -0.6577
vn -0.7532 -0.0000 0.6577
s 0
f 237//139 238//139 239//139 240//139
f 241//140 242//140 243//140 244//140
f 237//141 243//141 242//141 238//141
f 241//142 244//142 240//142 239//142
f 237//143 240//143 244//143 243//143
f 241//144 239//144 238//144 242//144
o Wall7
v 0.894493 1.645540 -1.533383
v 1.060624 1.645540 -1.678450
v 1.060624 -1.681460 -1.678449
v 0.894493 -1.681460 -1.533383
v 1.060690 -1.681460 -1.678374
v 1.060690 1.645540 -1.678374
v 0.894559 1.645540 -1.533308
v 0.894559 -1.681460 -1.533307
vn -0.6577 -0.0000 -0.7532
vn 0.6577 -0.0000 0.7532
vn -0.0000 1.0000 -0.0000
vn -0.0000 -1.0000 -0.0000
vn -0.7532 -0.0000 0.6577
vn 0.7532 -0.0000 -0.6577
s 0
f 245//145 246//145 247//145 248//145
f 249//146 250//146 251//146 252//146
f 245//147 251//147 250//147 246//147
f 249//148 252//148 248//148 247//148
f 245//149 248//149 252//149 251//149
f 249//150 247//150 246//150 250//150
o Wall8
v 6.628138 1.645540 5.065118
v 6.788082 1.645540 4.925454
v 6.788082 -1.681460 4.925454
v 6.628138 -1.681460 5.065118
v 6.788147 -1.681460 4.925529
v 6.788147 1.645540 4.925529
v 6.628204 1.645540 5.065193
v 6.628204 -1.681460 5.065193
vn -0.6577 -0.0000 -0.7532
vn 0.6577 -0.0000 0.7532
vn -0.0000 1.0000 -0.0000
vn -0.0000 -1.0000 -0.0000
vn -0.7532 -0.0000 0.6577
vn 0.7532 -0.0000 -0.6577
s 0
f 253//151 254//151 255//151 256//151
f 257//152 258//152 259//152 260//152
f 253//153 259//153 258//153 254//153
f 257//154 260//154 256//154 255//154
f 253//155 256//155 260//155 259//155
f 257//156 255//156 254//156 258//156
o Wall9
v 6.761110 1.645540 5.217475
v 6.628133 1.645540 5.065188
v 6.628133 -1.681460 5.065188
v 6.761110 -1.681460 5.217475
v 6.628208 -1.681460 5.065123
v 6.628208 1.645540 5.065123
v 6.761186 1.645540 5.217409
v 6.761186 -1.681460 5.217409
vn -0.7532 -0.0000 0.6577
vn 0.7532 -0.0000 -0.6577
vn -0.0000 1.0000 -0.0000
vn -0.0000 -1.0000 -0.0000
vn 0.6577 -0.0000 0.7532
vn -0.6577 -0.0000 -0.7532
s 0
f 261//157 262//157 263//157 264//157
f 265//158 266//158 267//158 268//158
f 261//159 267//159 266//159 262//159
f 265//160 268//160 264//160 263//160
f 261//161 264//161 268//161 267//161
f 265//162 263//162 262//162 266//162
o Window0
v 5.264514 1.606176 6.523981
v 6.340406 1.606176 5.584504
v 6.340406 -0.701192 5.584504
v 5.264514 -0.701192 6.523981
v 6.340735 -0.701192 5.584880
v 6.340735 1.606176 5.584880
v 5.264843 1.606176 6.524357
v 5.264843 -0.701192 6.524357
vn -0.6577 -0.0000 -0.7532
vn 0.6577 -0.0000 0.7532
vn -0.0000 1.0000 -0.0000
vn -0.0000 -1.0000 -0.0000
vn -0.7532 -0.0000 0.6577
vn 0.7532 -0.0000 -0.6577
s 0
f 269//163 270//163 271//163 272//163
f 273//164 274//164 275//164 276//164
f 269//165 275//165 274//165 270//165
f 273//166 276//166 272//166 271//166
f 269//167 272//167 276//167 275//167
f 273//168 271//168 270//168 274//168
